<svg width="30" height="30" viewBox="0 0 30 30" fill="none" xmlns="http://www.w3.org/2000/svg">
<path d="M3.75 6.25C3.75 5.55964 4.30964 5 5 5H25C25.6904 5 26.25 5.55964 26.25 6.25C26.25 6.94036 25.6904 7.5 25 7.5H5C4.30964 7.5 3.75 6.94036 3.75 6.25ZM3.75 15C3.75 14.3096 4.30964 13.75 5 13.75H25C25.6904 13.75 26.25 14.3096 26.25 15C26.25 15.6904 25.6904 16.25 25 16.25H5C4.30964 16.25 3.75 15.6904 3.75 15ZM3.75 23.75C3.75 23.0596 4.30964 22.5 5 22.5H25C25.6904 22.5 26.25 23.0596 26.25 23.75C26.25 24.4404 25.6904 25 25 25H5C4.30964 25 3.75 24.4404 3.75 23.75Z" fill="black"/>
</svg>
