<svg width="1350" height="1350" viewBox="0 0 1350 1350" fill="none" xmlns="http://www.w3.org/2000/svg">
<path d="M727.258 821.772L658.692 827.915L643.518 658.611C641.022 651.555 639.593 644.165 639.279 636.687C639.171 635.026 639.104 633.366 639.063 631.665C638.807 620.392 639.968 610.065 643.37 601.668L642.33 555.133C642.31 554.219 642.47 553.309 642.801 552.456C643.132 551.603 643.628 550.824 644.261 550.162C644.893 549.501 645.649 548.971 646.487 548.602C647.324 548.233 648.226 548.033 649.141 548.012C650.056 547.992 650.965 548.152 651.818 548.483C652.671 548.814 653.451 549.31 654.112 549.943C654.773 550.575 655.303 551.332 655.672 552.169C656.041 553.006 656.242 553.908 656.262 554.823L656.951 585.873C658.349 585.143 659.802 584.525 661.298 584.023L660.285 538.65C660.229 537.715 660.361 536.778 660.676 535.895C660.99 535.012 661.479 534.202 662.114 533.512C662.748 532.823 663.515 532.269 664.369 531.883C665.223 531.497 666.146 531.287 667.083 531.266C668.02 531.245 668.951 531.414 669.821 531.761C670.692 532.109 671.483 532.628 672.148 533.288C672.812 533.949 673.337 534.736 673.69 535.604C674.044 536.472 674.218 537.403 674.204 538.339L675.189 582.12C677.196 582.161 679.198 582.332 681.183 582.633L680.279 542.133C680.222 541.198 680.355 540.261 680.669 539.378C680.983 538.495 681.472 537.685 682.107 536.995C682.742 536.306 683.509 535.752 684.363 535.366C685.217 534.98 686.14 534.77 687.077 534.749C688.013 534.728 688.945 534.897 689.815 535.244C690.685 535.592 691.476 536.111 692.141 536.771C692.806 537.432 693.331 538.22 693.684 539.087C694.037 539.955 694.212 540.886 694.197 541.823L695.21 587.048C696.891 587.849 698.523 588.751 700.097 589.748L702.095 551.408C702.191 549.562 703.017 547.83 704.391 546.593C705.764 545.357 707.573 544.716 709.418 544.813C711.264 544.909 712.996 545.735 714.232 547.109C715.469 548.482 716.11 550.291 716.013 552.136L713.192 606.285L712.8 613.616L714.285 611.077L723.6 594.999C724.529 593.402 726.055 592.24 727.841 591.768C729.627 591.295 731.527 591.552 733.124 592.481C734.721 593.41 735.884 594.936 736.356 596.722C736.828 598.508 736.571 600.409 735.642 602.005L715.716 636.201C715.716 636.431 715.716 636.674 715.716 636.917C716.058 643.905 714.979 650.891 712.544 657.45L727.258 821.772Z" fill="white" stroke="#4F3CC9" stroke-width="1.96" stroke-miterlimit="10"/>
<path d="M698.888 839.935C675.39 844.066 652.992 828.366 648.861 804.867C644.73 781.369 660.431 758.971 683.929 754.84L867.19 722.625C890.688 718.495 913.086 734.195 917.217 757.694C921.348 781.192 905.647 803.59 882.149 807.721L698.888 839.935Z" fill="#77E0B5"/>
<path d="M681.668 626.29L688.007 626.027C710.095 625.113 728.742 642.278 729.656 664.365L735.2 798.319C736.114 820.407 718.95 839.054 696.862 839.968L690.522 840.23C668.435 841.144 649.788 823.98 648.874 801.892L643.33 667.938C642.416 645.851 659.58 627.204 681.668 626.29Z" fill="#77E0B5"/>
<path d="M785.565 825.957L705.456 839.7C705.456 839.7 749.736 778.748 733.05 746.024L761.278 740.894L785.565 825.957Z" fill="#4F3CC9"/>
<path d="M730.809 675.392L643.707 694.575L731.957 718.956L730.809 675.392Z" fill="#4F3CC9"/>
<path d="M626.974 638.588L732.672 617.832L744.411 677.615L638.714 698.372L626.974 638.588Z" fill="#77E0B5"/>
<path d="M955.368 726.503C937.217 726.501 919.242 730.074 902.472 737.02C885.702 743.965 870.464 754.145 857.628 766.979C844.792 779.814 834.61 795.051 827.664 811.821C820.717 828.59 817.142 846.564 817.142 864.716V1113.99H1093.58V864.716C1093.58 828.059 1079.02 792.904 1053.1 766.984C1027.18 741.064 992.024 726.503 955.368 726.503Z" fill="#F582AE"/>
<path d="M952.205 768.859L952.191 768.86C941.78 769.61 932.732 761.778 931.982 751.367L927.095 683.516C926.345 673.105 934.177 664.057 944.588 663.307L944.602 663.306C955.013 662.556 964.061 670.388 964.811 680.8L969.698 748.65C970.448 759.061 962.616 768.109 952.205 768.859Z" fill="white" stroke="#4F3CC9" stroke-width="2.18" stroke-miterlimit="10"/>
<path d="M929.542 701.109L931.108 722.884C936.348 721.128 941.051 718.061 944.77 713.975V766.625C944.77 766.625 951.183 771.12 957.609 769.838C964.035 768.555 962.739 697.977 962.739 697.977C962.739 697.977 960.673 696.627 956.421 697.694C959.58 691.957 962.263 685.969 964.44 679.793C958.716 691.7 929.542 701.109 929.542 701.109Z" fill="#4F3CC9"/>
<path d="M972.688 577.881C972.688 577.881 866.268 439.506 808.758 787.198L908.725 801.239C908.725 801.239 934.942 550.8 972.688 577.881Z" fill="#4F3CC9"/>
<path d="M921.361 701.53C896.37 695.898 882.492 663.012 890.365 628.078C898.238 593.144 924.88 569.389 949.871 575.022C974.863 580.654 988.74 613.539 980.867 648.473C972.995 683.408 946.353 707.162 921.361 701.53Z" fill="white" stroke="#4F3CC9" stroke-width="1.96" stroke-miterlimit="10"/>
<path d="M943.434 658.327C943.434 658.327 934.74 685.395 907.47 672.786" stroke="#4F3CC9" stroke-width="1.96" stroke-miterlimit="10" stroke-linecap="round"/>
<path d="M898.398 615.019C895.706 615.019 893.524 612.838 893.524 610.146C893.524 607.454 895.706 605.272 898.398 605.272C901.09 605.272 903.271 607.454 903.271 610.146C903.271 612.838 901.09 615.019 898.398 615.019Z" fill="#4F3CC9"/>
<path d="M921.361 623.902C918.67 623.902 916.488 621.721 916.488 619.029C916.488 616.337 918.67 614.155 921.361 614.155C924.053 614.155 926.235 616.337 926.235 619.029C926.235 621.721 924.053 623.902 921.361 623.902Z" fill="#4F3CC9"/>
<path d="M944.258 632.583C944.258 632.583 944.622 604.76 925.358 603.167" stroke="#4F3CC9" stroke-width="1.96" stroke-miterlimit="10" stroke-linecap="round"/>
<path d="M914.125 594C914.125 594 903.906 608.202 891.607 589.95" stroke="#4F3CC9" stroke-width="1.96" stroke-miterlimit="10" stroke-linecap="round"/>
<path d="M914.396 612.509L902.246 646.259L914.396 648.959V612.509Z" fill="#F582AE"/>
<path d="M929.543 641.047C925.472 641.047 922.172 639.827 922.172 638.32C922.172 636.814 925.472 635.593 929.543 635.593C933.613 635.593 936.914 636.814 936.914 638.32C936.914 639.827 933.613 641.047 929.543 641.047Z" fill="#F582AE"/>
<path d="M894.321 639.576C889.944 639.576 886.396 638.065 886.396 636.201C886.396 634.337 889.944 632.826 894.321 632.826C898.698 632.826 902.245 634.337 902.245 636.201C902.245 638.065 898.698 639.576 894.321 639.576Z" fill="#F582AE"/>
<path d="M1204.01 1115.61H84.861C84.861 1121.18 87.0741 1126.53 91.0135 1130.47C94.9529 1134.41 100.296 1136.62 105.867 1136.62H1183C1188.58 1136.62 1193.92 1134.41 1197.86 1130.47C1201.8 1126.53 1204.01 1121.18 1204.01 1115.61Z" fill="white" stroke="#4F3CC9" stroke-width="1.11" stroke-miterlimit="10"/>
<path d="M1200.47 1119.24H86.9534C85.1325 1116.04 84.1613 1112.43 84.132 1108.74H1203.28C1203.28 1108.74 1202.15 1116.25 1200.47 1119.24Z" fill="#4F3CC9"/>
<path d="M844.614 582.053L484.434 309.15L393.012 500.661L835.704 603.639L844.614 582.053Z" fill="#4F3CC9"/>
<path d="M589.329 566.109L708.669 598.82L757.755 482.382L651.172 414.396L589.329 566.109Z" fill="#F582AE"/>
<path d="M798.255 604.287L837.554 615.073L853.727 576.707L818.613 554.323L798.255 604.287Z" fill="#F582AE"/>
<path d="M480.665 302.363L504.68 313.439L408.358 522.282L384.342 511.206L480.665 302.363Z" fill="#F582AE"/>
<path d="M1022.57 260.577L1033.3 262.67L1037.66 272.687L1042.96 263.129L1053.84 262.076L1046.38 254.084L1048.75 243.419L1038.84 248.036L1029.43 242.487L1030.75 253.341L1022.57 260.577Z" fill="#F582AE"/>
<path d="M833.827 306.423L842.805 303.372L850.419 309.055L850.297 299.565L858.046 294.084L848.974 291.263L846.166 282.204L840.685 289.953L831.195 289.832L836.865 297.432L833.827 306.423Z" fill="#F582AE"/>
<path d="M268.461 116.14L274.455 114.818L278.951 119.016L279.545 112.9L284.917 109.93L279.288 107.473L278.127 101.452L274.05 106.043L267.961 105.286L271.066 110.579L268.461 116.14Z" fill="#F582AE"/>
<path d="M1166.79 298.62L1179.24 301.55L1183.87 313.47L1190.51 302.549L1203.28 301.82L1194.94 292.127L1198.19 279.747L1186.39 284.688L1175.63 277.776L1176.69 290.52L1166.79 298.62Z" fill="#F582AE"/>
<path d="M297.432 578.016L309.001 578.38L315.265 588.127L319.194 577.233L330.399 574.29L321.246 567.189L321.907 555.62L312.322 562.127L301.536 557.928L304.762 569.052L297.432 578.016Z" fill="#F582AE"/>
<path d="M944.959 443.853L952.249 444.245L956.056 450.468L958.675 443.651L965.776 441.95L960.106 437.36L960.687 430.07L954.558 434.039L947.821 431.244L949.698 438.305L944.959 443.853Z" fill="#F582AE"/>
<path d="M330.399 325.404L335.961 324.945L339.498 329.265L340.78 323.838L345.991 321.813L341.226 318.897L340.902 313.322L336.663 316.966L331.263 315.549L333.423 320.693L330.399 325.404Z" fill="#F582AE"/>
<path d="M542.808 98.874L550.962 101.831L553.162 110.228L558.495 103.383L567.162 103.896L562.289 96.7005L565.461 88.6275L557.118 91.0305L550.409 85.509L550.125 94.1895L542.808 98.874Z" fill="#F582AE"/>
<path d="M919.174 181.683L929.893 183.776L934.267 193.793L939.559 184.235L950.44 183.182L942.988 175.19L945.351 164.511L935.442 169.128L926.019 163.593L927.355 174.447L919.174 181.683Z" fill="#F582AE"/>
<path d="M747.427 134.446L756.405 131.396L764.019 137.079L763.897 127.589L771.646 122.107L762.574 119.286L759.767 110.228L754.286 117.976L744.795 117.855L750.465 125.455L747.427 134.446Z" fill="#F582AE"/>
<path d="M385.033 214.745L391.027 213.422L395.523 217.62L396.117 211.505L401.49 208.535L395.86 206.077L394.699 200.057L390.622 204.647L384.534 203.891L387.639 209.183L385.033 214.745Z" fill="#F582AE"/>
<path d="M1095.26 467.357L1107.7 470.3L1112.35 482.22L1118.99 471.285L1131.76 470.556L1123.42 460.863L1126.66 448.497L1114.87 453.438L1104.11 446.526L1105.16 459.27L1095.26 467.357Z" fill="#F582AE"/>
<path d="M488.187 636.876L499.77 637.241L506.034 646.988L509.962 636.093L521.167 633.15L512.015 626.049L512.676 614.48L503.091 620.986L492.304 616.788L495.531 627.912L488.187 636.876Z" fill="#F582AE"/>
<path d="M737.397 388.786L744.687 389.178L748.494 395.402L751.113 388.598L758.214 386.896L752.544 382.293L753.124 375.017L746.995 378.986L740.259 376.191L742.135 383.238L737.397 388.786Z" fill="#F582AE"/>
<path d="M214.07 418.5L219.645 418.041L223.182 422.374L224.465 416.934L229.676 414.909L224.897 412.007L224.586 406.431L220.347 410.076L214.947 408.645L217.107 413.802L214.07 418.5Z" fill="#F582AE"/>
<path d="M603.099 300.551L611.253 303.507L613.44 311.904L618.786 305.059L627.439 305.573L622.579 298.377L625.752 290.304L617.409 292.707L610.699 287.199L610.402 295.866L603.099 300.551Z" fill="#F582AE"/>
<path d="M838.955 887.318C815.274 890.222 793.723 873.378 790.819 849.697C787.916 826.015 804.759 804.464 828.441 801.561L1013.13 778.917C1036.81 776.013 1058.36 792.857 1061.26 816.538C1064.17 840.22 1047.32 861.771 1023.64 864.674L838.955 887.318Z" fill="#77E0B5"/>
<path d="M849.15 787.05L782.055 802.508L743.904 636.863C740.462 630.21 738.037 623.079 736.709 615.708C736.371 614.088 736.074 612.441 735.804 610.781C734.022 599.643 733.739 589.181 735.98 580.46L728.595 534.56C728.408 533.639 728.408 532.691 728.597 531.771C728.785 530.851 729.158 529.979 729.692 529.207C730.226 528.435 730.91 527.778 731.705 527.278C732.499 526.777 733.386 526.441 734.313 526.292C735.24 526.143 736.188 526.182 737.099 526.409C738.01 526.635 738.866 527.043 739.616 527.608C740.365 528.174 740.993 528.885 741.461 529.699C741.929 530.513 742.227 531.413 742.338 532.346L747.293 562.95C748.572 562.023 749.926 561.206 751.343 560.507L744.161 515.7C743.973 514.78 743.974 513.832 744.162 512.912C744.351 511.992 744.723 511.12 745.257 510.347C745.791 509.575 746.476 508.919 747.27 508.418C748.064 507.917 748.951 507.582 749.878 507.433C750.805 507.283 751.753 507.323 752.664 507.549C753.576 507.775 754.432 508.183 755.181 508.749C755.931 509.314 756.558 510.025 757.026 510.839C757.494 511.653 757.792 512.554 757.904 513.486L764.856 556.686C766.854 556.449 768.865 556.345 770.877 556.376L764.424 516.321C764.27 515.414 764.298 514.485 764.505 513.588C764.712 512.692 765.095 511.845 765.631 511.097C766.167 510.349 766.846 509.715 767.629 509.231C768.412 508.747 769.283 508.423 770.192 508.278C771.1 508.132 772.029 508.168 772.924 508.384C773.818 508.6 774.661 508.99 775.404 509.534C776.147 510.077 776.775 510.762 777.251 511.549C777.728 512.337 778.044 513.21 778.181 514.121L785.363 558.9C787.139 559.48 788.879 560.165 790.574 560.952L787.32 522.693C787.212 520.879 787.818 519.095 789.007 517.721C790.196 516.347 791.876 515.492 793.686 515.339C795.497 515.186 797.296 515.746 798.699 516.9C800.103 518.055 800.999 519.712 801.198 521.519L805.802 575.519L806.423 582.836L807.543 580.136L814.644 562.883C815.373 561.212 816.728 559.894 818.417 559.211C820.107 558.528 821.997 558.534 823.682 559.228C825.367 559.922 826.713 561.249 827.431 562.924C828.149 564.599 828.182 566.489 827.523 568.188L812.457 604.8C812.457 605.03 812.538 605.286 812.565 605.516C813.828 612.381 813.681 619.431 812.133 626.238L849.15 787.05Z" fill="white" stroke="#4F3CC9" stroke-width="1.96" stroke-miterlimit="10"/>
<path d="M924.885 576.045C926.653 577.908 906.282 600.426 958.243 628.695L947.335 870.575L1053.84 873.14L1033.32 581.216C1033.32 581.216 1011.5 523.476 926.802 548.505C926.802 548.464 901.138 551.03 924.885 576.045Z" fill="#4F3CC9"/>
<path d="M973.097 597.378L979.787 603.365L960.105 625.355L953.416 619.367L973.097 597.378Z" fill="#77E0B5"/>
<path d="M959.569 587.436L966.258 593.424L946.577 615.413L939.888 609.426L959.569 587.436Z" fill="#77E0B5"/>
<path d="M853.2 575.964C853.2 575.964 835.15 604.314 813.496 604.719L813.861 608.567L820.071 610.2L826.686 608.783L827.158 612.482L837.553 615.02L853.753 576.652L853.2 575.964Z" fill="#4F3CC9"/>
<path d="M757.755 482.382C757.755 482.382 708.669 549.45 589.329 565.866L708.669 598.82L757.755 482.382Z" fill="#4F3CC9"/>
<path d="M845.748 882.981C840.287 884.52 834.576 884.967 828.942 884.298C823.307 883.63 817.86 881.857 812.911 879.083C807.961 876.309 803.607 872.587 800.096 868.13C796.586 863.672 793.987 858.567 792.45 853.105L760.927 741.15L744.525 682.884C742.986 677.423 742.539 671.712 743.208 666.078C743.876 660.443 745.648 654.996 748.423 650.047C751.197 645.097 754.919 640.743 759.376 637.232C763.834 633.722 768.939 631.123 774.4 629.586C785.428 626.483 797.237 627.887 807.229 633.49C817.222 639.092 824.58 648.434 827.685 659.461L875.623 829.697C878.727 840.724 877.322 852.533 871.72 862.525C866.117 872.518 856.775 879.876 845.748 882.981Z" fill="#77E0B5"/>
<path d="M823.729 559.076C823.729 559.076 823.729 559.345 823.608 559.831C822.433 566.581 811.296 616.153 736.735 615.681L738.828 625.455L815.17 611.334L812.47 604.746L827.55 568.161C827.55 568.161 830.25 561.195 823.729 559.076Z" fill="#4F3CC9"/>
<path d="M871.627 795.474C869.575 799.024 853.024 812.794 853.024 812.794L860.719 796.756L849.177 798.673L863.932 785.848C863.932 785.848 878.688 783.283 871.627 795.474Z" fill="#4F3CC9"/>
<path d="M951.831 828.9C951.831 828.9 813.186 906.93 760.927 741.15L790.155 845.519C790.155 845.519 792.166 889.029 838.957 887.369L993.532 868.82C993.532 868.82 976.536 816.318 951.831 828.9Z" fill="#4F3CC9"/>
<path d="M644.193 701.325C644.193 701.325 675.472 787.927 744.282 781.191C744.282 781.191 739.3 835.731 705.456 839.74C671.611 843.75 647.555 839.416 646.596 788.899C645.638 738.382 644.193 701.325 644.193 701.325Z" fill="#4F3CC9"/>
<path d="M660.555 607.973H678.834V1115.63H660.555V607.973Z" fill="#4F3CC9"/>
<path d="M673.056 542.039C665.397 542.039 658.053 545.081 652.637 550.496C647.222 555.912 644.179 563.256 644.179 570.915V632.502H696.155V565.137C696.155 559.011 693.721 553.136 689.389 548.804C685.057 544.472 679.182 542.039 673.056 542.039Z" fill="#77E0B5"/>
<path d="M672.097 580.541C667.311 580.541 663.43 576.66 663.43 571.873C663.43 567.087 667.311 563.207 672.097 563.207C676.884 563.207 680.764 567.087 680.764 571.873C680.764 576.66 676.884 580.541 672.097 580.541Z" fill="white" stroke="#4F3CC9" stroke-width="1.96" stroke-miterlimit="10"/>
<path d="M696.276 563.936C696.276 563.936 688.378 631.436 644.436 632.394L697.761 632.502L696.276 563.936Z" fill="#4F3CC9"/>
<path d="M504.684 313.47C504.684 313.47 402.084 510.287 384.345 511.245L408.362 522.329L504.684 313.47Z" fill="#4F3CC9"/>
<path d="M1045.51 758.903L1047.42 788.4L1049.99 872.451C1049.99 872.451 1008.29 1055.3 817.79 1055.94L817.196 1113.99H1093.58L1092.97 852.566C1092.97 852.566 1091.69 803.817 1045.51 758.903Z" fill="#4F3CC9"/>
<path d="M720.99 629.602L826.687 608.846L838.427 668.629L732.73 689.386L720.99 629.602Z" fill="#77E0B5"/>
<path d="M830.574 669.722L747.805 685.76L847.246 729.392L830.574 669.722Z" fill="#4F3CC9"/>
<path d="M826.686 608.85C826.686 608.85 822.217 670.545 732.726 689.391L838.35 668.614L826.686 608.85Z" fill="#4F3CC9"/>
</svg>
