<svg width="748" height="750" viewBox="0 0 748 750" fill="none" xmlns="http://www.w3.org/2000/svg">
<path d="M557.77 79.42C557.77 79.42 577.44 1.47002 606.22 4.42002C635 7.37002 650.44 80.85 650.44 80.85" stroke="#4F3CC9" stroke-width="2" stroke-miterlimit="10"/>
<path d="M603.77 24C609.845 24 614.77 19.0751 614.77 13C614.77 6.92487 609.845 2 603.77 2C597.695 2 592.77 6.92487 592.77 13C592.77 19.0751 597.695 24 603.77 24Z" fill="white" stroke="#4F3CC9" stroke-width="2.84" stroke-miterlimit="10"/>
<path d="M132.54 674.68C99.8 675.87 72.96 668.68 71.94 640.68C71.45 627.12 77.26 614.58 87.12 605.13C97.56 595.13 121.28 595.49 138.12 594.88C170.87 593.69 189.5 608.45 190.51 636.38C191.51 662.55 168.51 672.24 138.63 674.33C136.63 674.49 134.6 674.607 132.54 674.68Z" fill="white" stroke="#4F3CC9" stroke-width="2.29" stroke-miterlimit="10"/>
<path d="M177.83 639.59C177.83 640.53 177.83 641.47 177.95 642.42C178.316 646.607 179.503 650.68 181.444 654.408C183.384 658.136 186.04 661.445 189.26 664.146C192.479 666.847 196.199 668.888 200.207 670.152C204.216 671.415 208.433 671.877 212.62 671.51L338.98 660.45C347.342 660.821 355.517 657.9 361.752 652.315C367.986 646.729 371.784 638.923 372.33 630.57L381.33 493.04C381.38 492.33 381.4 491.63 381.4 490.93C381.427 482.604 378.208 474.594 372.425 468.603C366.643 462.612 358.753 459.111 350.431 458.843C342.108 458.574 334.009 461.561 327.853 467.167C321.697 472.774 317.969 480.559 317.46 488.87L310.29 598.72L207.05 607.72C199.083 608.417 191.666 612.072 186.26 617.966C180.853 623.859 177.85 631.563 177.84 639.56L177.83 639.59Z" fill="#77E0B5"/>
<path d="M224.71 606.32L219.93 670.99H228.77L243.83 604.65L224.71 606.32Z" fill="#4F3CC9"/>
<path d="M310.88 598.79L338.55 614.23L312.26 577.64L311.06 595.93" fill="#4F3CC9"/>
<path d="M179.349 600.166L174.145 679.786L219.178 682.73L224.383 603.11L179.349 600.166Z" fill="#77E0B5"/>
<path d="M177.54 621.44C177.54 621.44 177.54 675.93 221.33 682.69L171.91 679.46L177.54 621.44Z" fill="#4F3CC9"/>
<path d="M420.94 443.71C434.386 443.709 447.7 446.356 460.122 451.5C472.545 456.645 483.832 464.186 493.34 473.693C502.848 483.2 510.39 494.487 515.536 506.909C520.682 519.331 523.33 532.644 523.33 546.09V730.74H318.54V546.09C318.54 532.644 321.189 519.329 326.335 506.906C331.481 494.484 339.024 483.196 348.533 473.689C358.042 464.182 369.331 456.641 381.755 451.497C394.178 446.354 407.494 443.707 420.94 443.71Z" fill="#F582AE"/>
<path d="M225.502 524.728L204.614 545.616C201.056 549.174 201.056 554.942 204.614 558.5L273.514 627.4C277.072 630.958 282.84 630.958 286.398 627.4L307.286 606.512C310.844 602.954 310.844 597.186 307.286 593.629L238.385 524.728C234.828 521.17 229.06 521.17 225.502 524.728Z" fill="#F582AE"/>
<path d="M226.315 523.915L211.721 538.509C208.608 541.622 208.608 546.668 211.721 549.78L282.233 620.293C285.346 623.406 290.392 623.406 293.505 620.293L308.099 605.698C311.212 602.586 311.212 597.54 308.099 594.427L237.587 523.914C234.474 520.802 229.428 520.802 226.315 523.915Z" fill="#4F3CC9"/>
<path d="M401.622 402.81L401.613 402.813C394.392 405.579 390.781 413.675 393.547 420.895L411.308 467.26C414.074 474.48 422.169 478.091 429.389 475.325L429.399 475.322C436.619 472.556 440.23 464.46 437.464 457.24L419.704 410.875C416.938 403.655 408.842 400.044 401.622 402.81Z" fill="white" stroke="#4F3CC9" stroke-width="2.17" stroke-miterlimit="10"/>
<path d="M393.106 434.253C412.033 432.883 425.823 410.325 423.908 383.868C421.993 357.411 405.098 337.073 386.171 338.443C367.244 339.813 353.453 362.372 355.368 388.829C357.283 415.286 374.179 435.623 393.106 434.253Z" fill="white" stroke="#4F3CC9" stroke-width="1.96" stroke-miterlimit="10"/>
<path d="M399.44 398.87C399.44 398.87 399.08 419.92 377.04 416.87" stroke="#4F3CC9" stroke-width="1.96" stroke-miterlimit="10" stroke-linecap="round"/>
<path d="M360.84 387.79C362.834 387.79 364.45 386.174 364.45 384.18C364.45 382.186 362.834 380.57 360.84 380.57C358.846 380.57 357.23 382.186 357.23 384.18C357.23 386.174 358.846 387.79 360.84 387.79Z" fill="#4F3CC9"/>
<path d="M378.43 385.52C380.424 385.52 382.04 383.904 382.04 381.91C382.04 379.916 380.424 378.3 378.43 378.3C376.436 378.3 374.82 379.916 374.82 381.91C374.82 383.904 376.436 385.52 378.43 385.52Z" fill="#4F3CC9"/>
<path d="M394.54 380.44C394.54 380.44 388.83 360.64 374.83 363.64" stroke="#4F3CC9" stroke-width="1.96" stroke-miterlimit="10" stroke-linecap="round"/>
<path d="M369.02 372.62L367.65 399.15L376.84 398.46L369.02 372.62Z" fill="#F582AE"/>
<path d="M524.59 551.51V735.58L316.54 735.11V689.36L350.19 691.52L350.97 679.82L470.14 669.56C508.96 669.56 506.97 632.11 506.97 632.11L515.32 506.37C523.31 520.45 524.59 551.51 524.59 551.51Z" fill="#4F3CC9"/>
<path d="M361.13 614.92L444.64 607.62L450.54 516.98C450.54 516.98 437.79 607.38 361.13 614.92Z" fill="#4F3CC9"/>
<path d="M385.914 389.551C388.8 388.677 390.878 387.104 390.555 386.036C390.231 384.968 387.63 384.811 384.744 385.684C381.857 386.558 379.78 388.132 380.103 389.199C380.426 390.267 383.028 390.425 385.914 389.551Z" fill="#F582AE"/>
<path d="M311.59 648.42C311.59 649.36 311.59 650.3 311.71 651.25C312.076 655.437 313.263 659.51 315.204 663.238C317.144 666.966 319.8 670.275 323.02 672.976C326.239 675.677 329.959 677.718 333.967 678.982C337.976 680.245 342.193 680.707 346.38 680.34L472.75 669.28C481.111 669.648 489.283 666.727 495.515 661.141C501.748 655.556 505.544 647.751 506.09 639.4L515.09 501.87C515.14 501.16 515.16 500.46 515.16 499.76C515.187 491.434 511.968 483.424 506.185 477.433C500.403 471.442 492.513 467.941 484.191 467.672C475.868 467.404 467.769 470.391 461.613 475.997C455.457 481.604 451.729 489.389 451.22 497.7L444.04 607.55L340.8 616.55C332.833 617.247 325.416 620.902 320.01 626.796C314.603 632.689 311.599 640.393 311.59 648.39V648.42Z" fill="#77E0B5"/>
<path d="M234.77 589.71C235.995 589.042 237.434 588.885 238.774 589.275C240.114 589.665 241.245 590.569 241.92 591.79L259.85 624.48C260.98 623.425 262.217 622.49 263.54 621.69L245.05 588C244.682 587.392 244.441 586.716 244.341 586.012C244.241 585.309 244.285 584.592 244.469 583.906C244.653 583.22 244.974 582.578 245.413 582.019C245.852 581.46 246.399 580.995 247.022 580.653C247.645 580.311 248.33 580.098 249.037 580.028C249.744 579.958 250.458 580.031 251.136 580.244C251.815 580.456 252.443 580.804 252.983 581.266C253.523 581.727 253.964 582.293 254.28 582.93L273.39 617.76C280.547 616.187 287.882 615.578 295.2 615.95L291.87 611.1L275.54 602.55C275.108 602.325 274.725 602.018 274.412 601.644C274.1 601.271 273.864 600.84 273.719 600.375C273.574 599.91 273.522 599.421 273.567 598.936C273.612 598.452 273.752 597.98 273.98 597.55L275.44 594.74C275.662 594.305 275.968 593.919 276.34 593.604C276.713 593.289 277.145 593.051 277.61 592.905C278.076 592.759 278.566 592.707 279.052 592.753C279.538 592.798 280.01 592.94 280.44 593.17L297.53 602.07H297.6C298.482 602.388 299.241 602.976 299.77 603.75L308.77 616.92C314.877 617.596 320.884 618.982 326.67 621.05C330.461 622.406 333.997 624.391 337.13 626.92L345.13 631.69C339.936 631.98 334.89 633.533 330.431 636.213C325.972 638.893 322.234 642.619 319.54 647.07C319.04 647.88 318.59 648.71 318.17 649.55C315.777 654.39 314.648 659.757 314.887 665.151C315.127 670.545 316.728 675.791 319.54 680.4L309.9 674.66C308.07 674.66 306.16 674.66 304.19 674.49H303.54L299.14 674.19C292.697 673.941 286.277 673.273 279.92 672.19C273.76 671.01 268.27 669.08 264.78 665.79C261.648 662.867 259.02 659.448 257 655.67L227.17 623.6C226.699 623.094 226.333 622.5 226.092 621.852C225.85 621.204 225.739 620.515 225.764 619.824C225.789 619.133 225.95 618.454 226.238 617.825C226.525 617.197 226.934 616.631 227.44 616.16C227.946 615.689 228.54 615.323 229.188 615.082C229.836 614.84 230.525 614.729 231.216 614.754C231.907 614.779 232.586 614.94 233.215 615.228C233.843 615.515 234.409 615.924 234.88 616.43L253.54 636.55L255.92 639.12C255.738 638.892 255.578 638.647 255.44 638.39L253.77 635.33L232.64 596.86C232.31 596.251 232.103 595.583 232.031 594.893C231.959 594.204 232.024 593.507 232.222 592.843C232.42 592.179 232.747 591.561 233.184 591.023C233.621 590.485 234.16 590.039 234.77 589.71Z" fill="white" stroke="#4F3CC9" stroke-width="1.96" stroke-miterlimit="10"/>
<path d="M358.47 615.16L353.69 679.82H362.53L377.59 613.48L358.47 615.16Z" fill="#4F3CC9"/>
<path d="M359.025 397.692C361.911 396.818 363.989 395.245 363.666 394.177C363.343 393.109 360.741 392.952 357.855 393.825C354.969 394.699 352.891 396.273 353.214 397.34C353.537 398.408 356.139 398.566 359.025 397.692Z" fill="#F582AE"/>
<path d="M367.01 364.55C367.01 364.55 346.54 367.3 347.54 381.59" stroke="#4F3CC9" stroke-width="1.96" stroke-miterlimit="10" stroke-linecap="round"/>
<path d="M443.39 607.62L471.06 623.06L444.77 586.47L443.58 604.76" fill="#4F3CC9"/>
<path d="M313.116 608.997L307.911 688.617L352.945 691.561L358.15 611.941L313.116 608.997Z" fill="#77E0B5"/>
<path d="M331.04 633.35C333.249 633.35 335.04 631.559 335.04 629.35C335.04 627.141 333.249 625.35 331.04 625.35C328.831 625.35 327.04 627.141 327.04 629.35C327.04 631.559 328.831 633.35 331.04 633.35Z" fill="white" stroke="#4F3CC9" stroke-width="1.96" stroke-miterlimit="10"/>
<path d="M309.54 629.35C309.54 629.35 311.32 684.77 355.11 691.52L305.69 688.29L309.54 629.35Z" fill="#4F3CC9"/>
<path d="M403.78 431.41C402.93 431.84 436.09 454.22 436.09 454.22L419.22 411.69C419.22 411.69 417.8 424.28 403.78 431.41Z" fill="#4F3CC9"/>
<path d="M1 735.44H747C747 739.153 745.525 742.714 742.899 745.339C740.274 747.965 736.713 749.44 733 749.44H15C11.287 749.44 7.726 747.965 5.10049 745.339C2.47499 742.714 1 739.153 1 735.44Z" fill="white" stroke="#4F3CC9" stroke-miterlimit="10"/>
<path d="M2.87999 742.44H745.13C746.336 740.303 746.979 737.894 747 735.44H1C1 735.44 1.75999 740.44 2.87999 742.44Z" fill="#4F3CC9"/>
<path d="M167.99 720.29H76.9V563.76H168.03L157.03 720.05C157.03 720.05 155.08 721 167.99 720.29Z" fill="#F582AE"/>
<path d="M179.03 557.99H63.35V580.46H179.03V557.99Z" fill="#F582AE"/>
<path d="M166.75 580.47H75.62L166.75 602.28V580.47Z" fill="#4F3CC9"/>
<path d="M151.11 557.99C151.11 557.99 161.52 575.51 142.68 580.47H179.02V557.99H151.11Z" fill="#4F3CC9"/>
<path d="M148.9 254.01C169.39 254.01 186 237.4 186 216.91C186 196.42 169.39 179.81 148.9 179.81C128.41 179.81 111.8 196.42 111.8 216.91C111.8 237.4 128.41 254.01 148.9 254.01Z" fill="white" stroke="#4F3CC9" stroke-width="3.8" stroke-miterlimit="10"/>
<path d="M150.29 103.04L39.23 214.1H50.45H270.57L150.29 103.04Z" fill="#77E0B5"/>
<path d="M150.29 103.04V18.18" stroke="#4F3CC9" stroke-width="3.8" stroke-miterlimit="10"/>
<path d="M270.54 214.1C270.54 214.1 165.41 106.76 39.2 214.1L150.29 103.04L270.54 214.1Z" fill="#4F3CC9"/>
<path d="M335.32 170.53C349.331 170.53 360.69 159.171 360.69 145.16C360.69 131.149 349.331 119.79 335.32 119.79C321.309 119.79 309.95 131.149 309.95 145.16C309.95 159.171 321.309 170.53 335.32 170.53Z" fill="white" stroke="#4F3CC9" stroke-width="2.6" stroke-miterlimit="10"/>
<path d="M336.26 67.27L260.3 143.23H267.98H418.54L336.26 67.27Z" fill="#77E0B5"/>
<path d="M336.26 67.27V9.23001" stroke="#4F3CC9" stroke-width="2.6" stroke-miterlimit="10"/>
<path d="M418.54 143.19C418.54 143.19 346.63 69.77 260.3 143.19L336.3 67.19L418.54 143.19Z" fill="#4F3CC9"/>
<path d="M164.74 604.09H73.97V677.28H164.74V604.09Z" fill="#4F3CC9"/>
<path d="M103.264 656.762L103.373 653.283C103.465 650.363 101.172 647.922 98.2522 647.83L70.4459 646.956C67.5257 646.864 65.0841 649.157 64.9923 652.077L64.883 655.556C64.7912 658.476 67.0841 660.917 70.0043 661.009L97.8105 661.883C100.731 661.975 103.172 659.682 103.264 656.762Z" fill="white" stroke="#4F3CC9" stroke-width="1.5" stroke-miterlimit="10"/>
<path d="M103.441 642.616L103.551 639.138C103.643 636.217 101.35 633.776 98.4295 633.684L70.6232 632.81C67.7031 632.718 65.2615 635.011 65.1697 637.931L65.0604 641.41C64.9686 644.33 67.2614 646.771 70.1816 646.863L97.9879 647.737C100.908 647.829 103.35 645.536 103.441 642.616Z" fill="white" stroke="#4F3CC9" stroke-width="1.5" stroke-miterlimit="10"/>
<path d="M103.532 628.034L103.641 624.556C103.733 621.636 101.44 619.194 98.5198 619.102L70.7135 618.228C67.7934 618.137 65.3518 620.429 65.26 623.35L65.1507 626.828C65.0589 629.748 67.3517 632.19 70.2719 632.281L98.0782 633.155C100.998 633.247 103.44 630.954 103.532 628.034Z" fill="white" stroke="#4F3CC9" stroke-width="1.5" stroke-miterlimit="10"/>
<path d="M105.716 614.999L105.836 611.019C105.926 608.026 103.572 605.527 100.578 605.437L73.1684 604.615C70.175 604.525 67.6756 606.879 67.5858 609.872L67.4664 613.852C67.3766 616.845 69.7304 619.345 72.7238 619.435L100.134 620.257C103.127 620.347 105.627 617.993 105.716 614.999Z" fill="white" stroke="#4F3CC9" stroke-width="1.50067" stroke-miterlimit="10"/>
<path d="M171.54 616.09L169.49 620.39C169.178 621.074 168.73 621.688 168.175 622.195C167.619 622.702 166.967 623.092 166.257 623.34C165.547 623.589 164.794 623.691 164.044 623.641C163.293 623.591 162.561 623.39 161.89 623.05L143.08 613.32L130.14 631.87C129.683 632.546 129.094 633.122 128.407 633.562C127.72 634.003 126.951 634.298 126.146 634.431C125.341 634.564 124.517 634.531 123.725 634.335C122.933 634.139 122.19 633.783 121.54 633.29L117.75 630.43C116.431 629.393 115.556 627.894 115.301 626.236C115.047 624.577 115.432 622.884 116.38 621.5L134.11 596.03C134.567 595.358 135.155 594.786 135.839 594.349C136.524 593.911 137.29 593.617 138.091 593.484C138.892 593.352 139.712 593.383 140.501 593.576C141.29 593.77 142.031 594.122 142.68 594.61L142.88 594.7L168.88 608.15C170.271 608.866 171.327 610.096 171.824 611.579C172.321 613.062 172.219 614.681 171.54 616.09Z" fill="white" stroke="#4F3CC9" stroke-width="1.59" stroke-miterlimit="10"/>
<path d="M686.28 330.97V79.42L521.4 79.42V330.97H686.28Z" fill="white" stroke="#4F3CC9" stroke-width="3.49" stroke-miterlimit="10"/>
<path d="M673.25 311.08V99.29L534.42 99.29V311.08H673.25Z" stroke="#4F3CC9" stroke-width="2.93" stroke-miterlimit="10"/>
<path d="M450.98 368.95C450.975 372.976 450.074 376.95 448.342 380.584C446.611 384.219 444.092 387.422 440.969 389.962C437.846 392.503 434.196 394.316 430.285 395.271C426.375 396.226 422.3 396.298 418.358 395.483C414.415 394.668 410.704 392.986 407.492 390.559C404.28 388.132 401.649 385.02 399.789 381.45C397.929 377.879 396.887 373.94 396.738 369.917C396.59 365.894 397.339 361.888 398.93 358.19C395.583 356.554 392.632 354.209 390.282 351.319C387.932 348.428 386.239 345.061 385.32 341.45C347.65 374.56 373.9 431.89 373.9 431.89L316.46 427.42L332.34 358.74C331.88 335.74 373.41 332.33 384.75 331.82C385.222 328.25 386.44 324.819 388.326 321.751C390.211 318.682 392.721 316.045 395.692 314.011C398.664 311.976 402.03 310.59 405.573 309.942C409.115 309.294 412.754 309.399 416.253 310.251C419.753 311.102 423.033 312.68 425.883 314.882C428.732 317.085 431.085 319.863 432.79 323.035C434.495 326.207 435.514 329.702 435.779 333.293C436.044 336.885 435.55 340.492 434.33 343.88C439.27 345.949 443.487 349.433 446.45 353.895C449.413 358.356 450.989 363.594 450.98 368.95Z" fill="#F582AE"/>
<path d="M438.6 351.5C438.6 351.5 443 392.84 409.49 391.42C409.49 391.42 416.86 399.26 431.59 396.42C446.32 393.58 455.35 372.66 449.65 359.35C449.65 359.34 439.67 351.73 438.6 351.5Z" fill="#4F3CC9"/>
<path d="M695.35 332.14V77.64H686.28V332.14H695.35Z" fill="#4F3CC9"/>
<path d="M229.81 616.89C229.81 616.89 230.08 617.29 230.57 617.98C234.14 622.98 249.4 643.89 257.13 644.49C257.462 644.535 257.798 644.535 258.13 644.49C266.45 643.06 278.81 617.16 312.79 627.14L307.79 673.95C307.79 673.95 280.22 673.72 271.43 669.2C262.64 664.68 257.01 655.61 257.01 655.61L227.11 622.61C227.11 622.61 223.87 617.87 227.45 616.08C231.03 614.29 229.81 616.89 229.81 616.89Z" fill="#4F3CC9"/>
<path d="M235.54 589.33L257.64 635.67L255.48 638.29L233.64 596.46C233.64 596.46 229.09 590.99 235.54 589.33Z" fill="#4F3CC9"/>
<path d="M249.05 580.3L264.26 621.88L245.54 586.95C245.54 586.95 242.4 581.49 249.05 580.3Z" fill="#4F3CC9"/>
<path d="M70.88 603.85C70.88 603.85 82.04 612.41 105.09 612.17C105.09 612.17 107.95 618.11 99.39 618.82C90.83 619.53 68.98 618.59 68.98 618.59L67.79 610.74C67.79 610.74 67.54 604.33 70.88 603.85Z" fill="#4F3CC9"/>
<path d="M66.6 620.01C66.6 620.01 77.05 632.84 103.19 629.28L102.48 634.28L70.28 632.28C68.8325 631.874 67.554 631.014 66.6337 629.825C65.7134 628.636 65.2002 627.183 65.17 625.68C64.94 620.25 66.6 620.01 66.6 620.01Z" fill="#4F3CC9"/>
<path d="M120.06 632.13L143.83 607.13L168.03 622.98L163.79 625.19L146.92 617.19C146.92 617.19 128.54 638.49 121.54 633.29L120.06 632.13Z" fill="#4F3CC9"/>
<path d="M67.07 635.19C67.07 635.19 80.67 649.81 103.45 642.62L101.29 647.07H68.54C68.54 647.07 61.61 641.4 67.07 635.19Z" fill="#4F3CC9"/>
<path d="M65.65 650.19C65.65 650.19 92.26 655.89 105.57 653.75L100.82 661.6L67.82 660.88C67.82 660.88 63.04 658.51 65.65 650.19Z" fill="#4F3CC9"/>
<path d="M163.31 627.85C163.79 628.57 175.43 627.14 177.81 618.11L175.19 664.45L164.03 670.19L163.31 627.85Z" fill="#4F3CC9"/>
<path d="M609.21 503.51C609.21 489.979 598.241 479.01 584.71 479.01C571.179 479.01 560.21 489.979 560.21 503.51V628.06C560.21 641.591 571.179 652.56 584.71 652.56C598.241 652.56 609.21 641.591 609.21 628.06V503.51Z" fill="white" stroke="#4F3CC9" stroke-width="1.82" stroke-miterlimit="10"/>
<path d="M696.21 502.63C696.21 484.3 681.35 469.44 663.02 469.44C644.69 469.44 629.83 484.3 629.83 502.63V646.09C629.83 664.42 644.69 679.28 663.02 679.28C681.35 679.28 696.21 664.42 696.21 646.09V502.63Z" fill="#77E0B5"/>
<path d="M670.35 440.92C670.35 422.59 655.49 407.73 637.16 407.73C618.83 407.73 603.97 422.59 603.97 440.92V609.02C603.97 627.35 618.83 642.21 637.16 642.21C655.49 642.21 670.35 627.35 670.35 609.02V440.92Z" fill="#77E0B5"/>
<path d="M632.59 468.4C632.59 454.212 621.088 442.71 606.9 442.71C592.712 442.71 581.21 454.212 581.21 468.4V626.86C581.21 641.048 592.712 652.55 606.9 652.55C621.088 652.55 632.59 641.048 632.59 626.86V468.4Z" fill="#77E0B5"/>
<path d="M632.59 622.01V467.3L646.13 622.01H632.59Z" fill="#4F3CC9"/>
<path d="M606.9 442.71C611.083 442.678 615.212 443.663 618.931 445.579C622.649 447.495 625.848 450.285 628.25 453.71C630.648 457.166 632.177 461.148 632.71 465.32C632.85 466.32 632.85 467.41 632.92 468.45V471.56V477.77L633.03 527.48L632.92 577.18L632.78 602.03L632.53 626.88L632.29 602.03L632.21 577.19L632.09 527.49L632.21 477.78V471.57V468.46C632.15 467.46 632.16 466.46 632.03 465.4C631.551 461.314 630.1 457.401 627.8 453.99C625.477 450.561 622.358 447.745 618.71 445.784C615.061 443.823 610.992 442.775 606.85 442.73L606.9 442.71Z" fill="#4F3CC9"/>
<path d="M669.08 469.44C673.439 469.44 677.754 470.298 681.781 471.966C685.808 473.634 689.467 476.079 692.549 479.161C695.631 482.243 698.076 485.902 699.744 489.929C701.411 493.956 702.27 498.271 702.27 502.63V646.09C702.27 650.449 701.411 654.764 699.744 658.791C698.076 662.818 695.631 666.477 692.549 669.559C689.467 672.641 685.808 675.086 681.781 676.754C677.754 678.421 673.439 679.28 669.08 679.28L646.77 674.51" fill="#4F3CC9"/>
<path d="M669.08 469.44C673.439 469.44 677.754 470.298 681.781 471.966C685.808 473.634 689.467 476.079 692.549 479.161C695.631 482.243 698.076 485.902 699.744 489.929C701.411 493.956 702.27 498.271 702.27 502.63V646.09C702.27 650.449 701.411 654.764 699.744 658.791C698.076 662.818 695.631 666.477 692.549 669.559C689.467 672.641 685.808 675.086 681.781 676.754C677.754 678.421 673.439 679.28 669.08 679.28L646.77 674.51" stroke="#4F3CC9" stroke-width="1.02" stroke-miterlimit="10"/>
<path d="M555.21 631.01H702.21V694.01C702.21 705.149 697.785 715.832 689.908 723.708C682.032 731.585 671.349 736.01 660.21 736.01H597.21C586.071 736.01 575.388 731.585 567.511 723.708C559.635 715.832 555.21 705.149 555.21 694.01V631.01Z" fill="white" stroke="#4F3CC9" stroke-width="1.54" stroke-miterlimit="10"/>
<path d="M704.71 622.01H556.71C550.359 622.01 545.21 627.159 545.21 633.51C545.21 639.861 550.359 645.01 556.71 645.01H704.71C711.061 645.01 716.21 639.861 716.21 633.51C716.21 627.159 711.061 622.01 704.71 622.01Z" fill="white" stroke="#4F3CC9" stroke-width="1.54" stroke-miterlimit="10"/>
<path d="M587.21 645.01C587.21 645.01 581.21 727.01 599.21 735.01" stroke="#4F3CC9" stroke-width="1.54" stroke-miterlimit="10"/>
<path d="M663.25 646.01C663.25 646.01 669.25 728.01 651.25 736.01" stroke="#4F3CC9" stroke-width="1.54" stroke-miterlimit="10"/>
<path d="M660.21 645.01C680.21 640.01 665.21 622.01 665.21 622.01L706.13 622.35C706.13 622.35 717.21 625.01 716.21 634.01C715.21 643.01 708.27 644.63 708.27 644.63L660.21 645.01Z" fill="#4F3CC9"/>
<path d="M555.36 646.47L702.21 658.35L703.16 644.57L634.96 645.05L554.65 644.57L555.36 646.47Z" fill="#4F3CC9"/>
<path d="M657.21 735.01C657.21 735.01 698.21 677.01 660.21 645.01L701.98 645.76L703.21 684.01C703.21 684.01 701.56 704.25 698.89 710.63C696.22 717.01 682.21 740.01 657.21 735.01Z" fill="#4F3CC9"/>
<path d="M592.21 659.01C592.21 659.01 587.21 686.01 595.21 720.01" stroke="#4F3CC9" stroke-width="1.54" stroke-miterlimit="10"/>
<path d="M553.21 627.01C553.21 627.01 543.21 636.01 556.21 642.01H638.21" stroke="#4F3CC9" stroke-width="1.54" stroke-miterlimit="10"/>
<path d="M577.1 730.35C577.1 730.35 645.1 740.44 665.1 723.23L665.46 735.7C665.46 735.7 593.73 737.7 586.46 734.87L577.1 730.35Z" fill="#4F3CC9"/>
<path d="M582.71 560.01C587.404 560.01 591.21 556.204 591.21 551.51C591.21 546.816 587.404 543.01 582.71 543.01C578.016 543.01 574.21 546.816 574.21 551.51C574.21 556.204 578.016 560.01 582.71 560.01Z" fill="#F582AE"/>
<path d="M630.71 490.01C635.404 490.01 639.21 486.204 639.21 481.51C639.21 476.816 635.404 473.01 630.71 473.01C626.016 473.01 622.21 476.816 622.21 481.51C622.21 486.204 626.016 490.01 630.71 490.01Z" fill="#F582AE"/>
<path d="M629.71 418.01C634.404 418.01 638.21 414.204 638.21 409.51C638.21 404.816 634.404 401.01 629.71 401.01C625.016 401.01 621.21 404.816 621.21 409.51C621.21 414.204 625.016 418.01 629.71 418.01Z" fill="#F582AE"/>
<path d="M668.71 454.01C673.404 454.01 677.21 450.204 677.21 445.51C677.21 440.816 673.404 437.01 668.71 437.01C664.016 437.01 660.21 440.816 660.21 445.51C660.21 450.204 664.016 454.01 668.71 454.01Z" fill="#F582AE"/>
<path d="M668.21 437.01C668.21 437.01 676.21 448.01 668.21 454.01C668.21 454.01 677.21 454.01 677.21 446.01C677.21 446.01 678.21 437.01 668.21 437.01Z" fill="#4F3CC9"/>
<path d="M631.54 473.05C631.54 473.05 639.34 482.96 631.26 489.99C631.26 489.99 636.38 490.14 638.78 484.07C638.78 484.07 640.3 478.35 635.78 474.68C635.78 474.68 632.95 473.09 631.54 473.05Z" fill="#4F3CC9"/>
<path d="M576.59 557.39C576.59 557.39 590.01 558.78 588.59 545.39C588.59 545.39 594.19 551.05 588.69 557.53C588.71 557.53 582.96 563.78 576.59 557.39Z" fill="#4F3CC9"/>
<path d="M581.21 470.25C581.21 470.25 597.21 488.01 598.21 478.01C599.21 468.01 591.21 458.01 591.21 458.01L581.21 470.25Z" fill="#4F3CC9"/>
<path d="M584.71 471.01C589.404 471.01 593.21 467.204 593.21 462.51C593.21 457.816 589.404 454.01 584.71 454.01C580.016 454.01 576.21 457.816 576.21 462.51C576.21 467.204 580.016 471.01 584.71 471.01Z" fill="#F582AE"/>
<path d="M585.54 453.86C585.54 453.86 593.08 463.93 585.54 471.11C585.54 471.11 593.26 470.11 593.26 462C593.16 459.944 592.327 457.992 590.91 456.498C589.493 455.004 587.588 454.068 585.54 453.86Z" fill="#4F3CC9"/>
<path d="M581.21 560.01C581.21 560.01 597.21 568.01 598.21 564.01C599.21 560.01 590.15 547.64 590.15 547.64C590.15 547.64 591.21 558.01 581.21 560.01Z" fill="#4F3CC9"/>
<path d="M668.21 454.01L670.35 459.02V453.22L668.71 454.01" fill="#4F3CC9"/>
<path d="M631.11 401.13C631.11 401.13 638.11 412.88 628.69 417.94C628.69 417.94 635.93 420.03 638.07 411.02C638.07 411.02 639.21 403.01 631.11 401.13Z" fill="#4F3CC9"/>
<path d="M629.71 418.01C629.71 418.01 645.21 424.01 646.21 421.01C647.21 418.01 645.71 409.46 637.96 407.73C637.96 407.73 634.21 417.01 629.71 418.01Z" fill="#4F3CC9"/>
<path d="M334.15 355.13C334.15 355.13 294.23 311.41 321.32 298.13C334.62 291.6 354.11 299.61 370.5 309.47C381.323 316.074 391.578 323.567 401.16 331.87C401.16 331.87 341.28 327.09 334.15 355.13Z" fill="#4F3CC9"/>
<path d="M359.82 302.38C359.82 302.38 386.91 271.49 423.98 298.58C461.05 325.67 449.16 357.51 449.16 357.51L401.16 331.84L359.82 302.38Z" fill="white" stroke="#4F3CC9" stroke-width="2.17" stroke-miterlimit="10"/>
<path d="M380.61 316.4C380.61 316.4 403.78 287.88 426.61 300" stroke="#4F3CC9" stroke-width="2.17" stroke-miterlimit="10"/>
<path d="M421.96 342.77C421.96 342.77 449.04 317.11 428.02 301.07" stroke="#4F3CC9" stroke-width="2.17" stroke-miterlimit="10"/>
<path d="M432.29 306.18C437.537 306.18 441.79 301.927 441.79 296.68C441.79 291.433 437.537 287.18 432.29 287.18C427.043 287.18 422.79 291.433 422.79 296.68C422.79 301.927 427.043 306.18 432.29 306.18Z" fill="white" stroke="#4F3CC9" stroke-width="2.17" stroke-miterlimit="10"/>
<path d="M447.26 327.09C447.26 327.09 423.74 338.73 387.62 322.34L401.16 332.79L449.16 357.51C449.16 357.51 451.78 336.6 447.26 327.09Z" fill="#4F3CC9"/>
<path d="M423.54 295.41C423.54 295.41 436.85 303.97 441.84 294.22C441.84 294.22 441.6 307.29 429.96 306.1C429.92 306.1 421.12 301.35 423.54 295.41Z" fill="#4F3CC9"/>
<path d="M509.68 481.11C509.68 481.11 516.46 489.91 515.39 506.37C514.32 522.83 506.57 634.37 506.57 634.37C506.57 634.37 514.54 491.19 509.68 481.11Z" fill="#4F3CC9"/>
</svg>
