
<svg width="564" height="689" viewBox="0 0 564 689" fill="none" xmlns="http://www.w3.org/2000/svg">
<path d="M3.05176e-05 12.6281H435.004V676.903H3.05176e-05V12.6281Z" fill="#878BD9"/>
<path d="M23.9341 654.67H415.336V31.5385L23.9341 31.0102V654.67Z" fill="white" stroke="#878BD9" stroke-width="3" stroke-miterlimit="10"/>
<path d="M345.826 83.8651H389.768V128.331H345.826V83.8651Z" fill="#878BD9"/>
<path d="M148.954 92.9415H322.959V97.7089H148.954V92.9415Z" fill="#878BD9"/>
<path d="M179.934 109.955H322.959V114.888H179.934V109.955Z" fill="#878BD9"/>
<path d="M345.826 187.322H389.768V231.787H345.826V187.322Z" fill="#878BD9"/>
<path d="M148.954 196.398H322.959V201.165H148.954V196.398Z" fill="#878BD9"/>
<path d="M179.934 213.182H322.959V218.115H179.934V213.182Z" fill="#878BD9"/>
<path d="M345.826 290.549H389.768V335.015H345.826V290.549Z" fill="#878BD9"/>
<path d="M148.954 299.619H322.959V304.386H148.954V299.619Z" fill="#878BD9"/>
<path d="M179.934 316.639H322.959V321.572H179.934V316.639Z" fill="#878BD9"/>
<path d="M345.826 393.547H389.768V438.013H345.826V393.547Z" fill="#878BD9"/>
<path d="M148.954 402.623H322.959V407.391H148.954V402.623Z" fill="#878BD9"/>
<path d="M179.934 419.408H322.959V424.341H179.934V419.408Z" fill="#878BD9"/>
<path d="M345.826 496.774H389.768V541.24H345.826V496.774Z" fill="#878BD9"/>
<path d="M148.954 505.844H322.959V510.612H148.954V505.844Z" fill="#878BD9"/>
<path d="M179.934 522.864H322.959V527.797H179.934V522.864Z" fill="#878BD9"/>
<path d="M467.993 274.032L421.968 256.789L399.267 196.888L403.07 170.893L387.253 155.019L379.974 164.274L390.637 196.252L404.611 269.513L460.042 303.05L467.993 274.032Z" fill="white" stroke="#878BD9" stroke-width="3" stroke-miterlimit="10"/>
<path d="M447.233 296.309L401.794 272.542L385.953 203.8L408.013 198.543L424.982 249.584L457.41 264.185C457.41 264.185 456.282 276.259 447.233 296.309Z" fill="#E2D700" stroke="#E2D700" stroke-width="3" stroke-miterlimit="10"/>
<path d="M460.737 142.418L492.48 199.239L229.946 355.634L198.203 298.813L460.737 142.418Z" fill="white" stroke="#878BD9" stroke-width="3" stroke-miterlimit="10"/>
<path d="M456.922 133.025L498.447 207.356L485.457 215.094L443.932 140.763L456.922 133.025Z" fill="white" stroke="#878BD9" stroke-width="3" stroke-miterlimit="10"/>
<path d="M447.135 353.486L422.985 481.95H439.818L456.528 415.716L447.135 353.486Z" fill="#E2D700" stroke="#E2D700" stroke-width="3" stroke-miterlimit="10"/>
<path d="M481.196 643.774L480.308 662.964L446.062 670.507C446.062 670.507 456.541 654.594 461.472 652.048V646.956L481.196 643.774Z" fill="white" stroke="#666BAA" stroke-width="3" stroke-miterlimit="10"/>
<path d="M480.771 652.118L480.604 673.123L428.039 676.757L461.657 651.984C461.657 651.984 428.391 683.797 480.771 652.118Z" fill="#666BAA"/>
<path d="M525.575 653.321L524.688 672.512L490.442 680.054C490.442 680.054 500.92 664.142 505.851 661.596V656.504L525.575 653.321Z" fill="white" stroke="#666BAA" stroke-width="3" stroke-miterlimit="10"/>
<path d="M525.15 661.666L524.984 682.67L472.419 686.305L506.036 661.532C506.036 661.532 472.77 693.344 525.15 661.666Z" fill="#666BAA"/>
<path d="M449.816 381.536L425.161 647.593L496.045 650.775L483.717 427.364L500.976 657.14L563.23 659.05L517.618 375.808L449.816 381.536Z" fill="#666BAA"/>
<path d="M489.437 247.872L469.99 227.224" stroke="#878BD9" stroke-width="3" stroke-miterlimit="10"/>
<path d="M451.727 235.148C451.727 235.148 470.36 256.744 470.286 262.734" stroke="#878BD9" stroke-width="3" stroke-miterlimit="10"/>
<path d="M486.577 237.038C486.577 237.038 468.955 248.801 458.439 259.526C458.439 259.526 453.403 292.592 445.039 298.696C445.039 298.696 455.271 469.812 447.505 486.463L552.906 485.19C552.906 485.19 493.178 250.348 486.577 237.038Z" fill="#E2D700" stroke="#E2D700" stroke-width="3" stroke-miterlimit="10"/>
<path d="M435.041 201.382L429.093 217.803L434.419 221.241C434.419 221.241 441.199 239.234 442.684 239.19C449.576 238.967 459.13 228.656 462.809 218.675" fill="white"/>
<path d="M435.041 201.382L429.093 217.803L434.419 221.241C434.419 221.241 441.199 239.234 442.684 239.19C449.576 238.967 459.13 228.656 462.809 218.675" stroke="#878BD9" stroke-width="3" stroke-miterlimit="10"/>
<path d="M443.455 213.106L443.239 216.352" stroke="#878BD9" stroke-width="2" stroke-miterlimit="10"/>
<path d="M441.045 212.775L441.643 215.531" stroke="#878BD9" stroke-width="2" stroke-miterlimit="10"/>
<path d="M438.653 214.023L439.831 216.409" stroke="#878BD9" stroke-width="2" stroke-miterlimit="10"/>
<path d="M437.451 230.985L436.385 232.844L437.297 233.697L437.852 234.149L443.338 228.548L435.522 228.586L435.325 230.584L437.451 230.985Z" fill="#B18AB8"/>
<path d="M373.903 253.505L374.519 270.69L387.74 293.814L437.821 363.562L480.234 284.063C481.892 263.752 458.525 266.241 458.525 266.241L437.119 329.592L417.752 307.085L399.945 286.392L399.575 285.431L404.826 272.542L401.911 262.015L397.294 263.924L398.57 271.473L395.685 275.222L390.138 260.684L373.903 253.505Z" fill="white" stroke="#878BD9" stroke-width="3" stroke-linecap="round" stroke-linejoin="bevel"/>
<path d="M454.692 265.541C454.692 265.541 466.095 258.539 474.841 265.91C483.588 273.281 487.551 276.38 475.236 297.869C462.92 319.357 438.049 371.575 438.049 371.575L385.928 301.891L403.119 286.615L436.385 321.553L454.692 265.541Z" fill="#E2D700" stroke="#E2D700" stroke-width="3" stroke-miterlimit="10"/>
<path d="M453.588 359.908C452.053 359.908 450.808 358.623 450.808 357.037C450.808 355.452 452.053 354.167 453.588 354.167C455.124 354.167 456.368 355.452 456.368 357.037C456.368 358.623 455.124 359.908 453.588 359.908Z" stroke="#878BD9" stroke-width="3" stroke-linecap="round" stroke-linejoin="bevel"/>
<path d="M454.365 371.289C452.83 371.289 451.585 370.003 451.585 368.418C451.585 366.833 452.83 365.547 454.365 365.547C455.9 365.547 457.145 366.833 457.145 368.418C457.145 370.003 455.9 371.289 454.365 371.289Z" stroke="#878BD9" stroke-width="3" stroke-linecap="round" stroke-linejoin="bevel"/>
<path d="M454.833 383.268C453.298 383.268 452.053 381.982 452.053 380.397C452.053 378.812 453.298 377.526 454.833 377.526C456.369 377.526 457.613 378.812 457.613 380.397C457.613 381.982 456.369 383.268 454.833 383.268Z" stroke="#878BD9" stroke-width="3" stroke-linecap="round" stroke-linejoin="bevel"/>
<path d="M474.804 397.022L501.728 381.186C501.728 381.186 517.063 401.949 512.977 418.141" stroke="#878BD9" stroke-width="3" stroke-linecap="round" stroke-linejoin="bevel"/>
<path d="M427.904 200.172C427.904 200.172 428.563 213.895 450.235 213.354C471.907 212.813 438.524 244.708 447.542 253.931C456.559 263.154 490.14 238.598 490.14 238.598C490.14 238.598 479.045 199.396 464.603 189.148C450.161 178.901 431.762 191.07 427.904 200.172Z" fill="#B18AB8"/>
<path d="M438.721 217.759C438.721 217.759 441.39 212.667 443.775 217.199" stroke="#878BD9" stroke-width="2" stroke-miterlimit="10"/>
<path d="M454.014 224.474C450.831 224.474 448.25 221.809 448.25 218.523C448.25 215.236 450.831 212.571 454.014 212.571C457.196 212.571 459.777 215.236 459.777 218.523C459.777 221.809 457.196 224.474 454.014 224.474Z" fill="#B18AB8"/>
<path d="M531.44 148.346L522.908 133.074C520.14 128.118 515.578 124.501 510.228 123.019C504.877 121.536 499.175 122.309 494.376 125.168L462.982 143.87L492.39 196.511L523.784 177.809C528.583 174.951 532.085 170.24 533.521 164.715C534.957 159.189 534.208 153.301 531.44 148.346Z" fill="white" stroke="#878BD9" stroke-width="3" stroke-miterlimit="10"/>
<path d="M197.907 298.925L229.651 355.745L179.829 345.517L197.907 298.925Z" fill="white" stroke="#878BD9" stroke-width="3" stroke-linejoin="bevel"/>
<path d="M188.175 327.065L197.402 348.241L180.267 344.766L188.175 327.065Z" fill="#878BD9"/>
<path d="M464.258 684.49L108.452 686.4" stroke="#666BAA" stroke-width="4" stroke-miterlimit="10"/>
<path d="M85.5413 683.084C85.5413 683.084 176.864 521.502 128.17 529.777C79.4761 538.051 69.614 679.99 69.614 679.99C69.614 679.99 90.5709 459.125 56.67 492.86C22.7691 526.594 47.6708 683.084 47.6708 683.084" fill="#FCFCFC"/>
<path d="M85.5413 683.084C85.5413 683.084 176.864 521.502 128.17 529.777C79.4761 538.051 69.614 679.99 69.614 679.99C69.614 679.99 90.5709 459.125 56.67 492.86C22.7691 526.594 47.6708 683.084 47.6708 683.084" stroke="#666BAA" stroke-width="4" stroke-miterlimit="10"/>
<path d="M156.308 0H278.696V33.4225H156.308V0Z" fill="#878BD9"/>
<path d="M473.645 207.97C462.36 207.97 453.212 198.523 453.212 186.87C453.212 175.216 462.36 165.77 473.645 165.77C484.93 165.77 494.078 175.216 494.078 186.87C494.078 198.523 484.93 207.97 473.645 207.97Z" fill="#B18AB8"/>
</svg>
